<?xml version="1.0" encoding="iso-8859-1"?>
<!-- Uploaded to: SVG Repo, www.svgrepo.com, Generator: SVG Repo Mixer Tools -->
<svg fill="#000000" height="800px" width="800px" version="1.1" id="Layer_1" xmlns="http://www.w3.org/2000/svg" xmlns:xlink="http://www.w3.org/1999/xlink" 
	 viewBox="0 0 512 512" xml:space="preserve">
<g>
	<g>
		<path d="M445.502,84.059c-0.211-1.551-0.764-3.075-1.771-4.415c-1.484-1.977-3.597-3.184-5.85-3.607
			C391.454,29.117,327.067,0,256,0C114.843,0,0,114.843,0,256c0,141.157,114.843,256,256,256s256-114.843,256-256
			C512,189.88,486.801,129.534,445.502,84.059z M475.097,165.575c-8.893,7.86-50.014,39.945-112.504,24.337
			c-27.639-6.908-39.528-20.218-52.12-34.31c-17.278-19.331-35.093-39.24-89.743-35.081c7.706-11.741,11.285-22.126,10.822-31.313
			c21.982-10.256,79.697-32.875,113.338-5.954c20.342,16.278,40.157,21.722,56.898,21.722c12.329,0,22.991-2.953,30.986-6.71
			C450.419,118.022,464.81,140.74,475.097,165.575z M256,18.963c62.759,0,119.889,24.526,162.338,64.483
			c-13.069,4.137-35.53,5.865-61.597-14.997c-41.69-33.331-106.583-8.818-132.315,3.122c-16.972-19.528-60.792-20.255-91.676-17.973
			C168.685,31.634,210.889,18.963,256,18.963z M102.382,75.633c1.09,0.226,2.231,0.289,3.396,0.103
			c35.819-5.648,88.926-6.798,103.204,6.93c-0.69,2.35-0.479,4.963,0.805,7.273c0.669,1.2,1.569,2.185,2.604,2.961
			c-1.076,8.221-8.095,19.908-20.326,33.498c-66.574,73.961-131.859,43.553-151.764,31.359
			C54.815,126.017,76.134,98.021,102.382,75.633z M32.982,175.684c16.016,9.513,38.643,17.585,64.518,17.585
			c32.581,0,70.301-12.821,106.347-51.676c60.201-9.403,74.514,6.534,92.486,26.644c13.296,14.88,28.371,31.75,61.667,40.074
			c13.583,3.393,26.287,4.81,38.055,4.81c42.271,0,72.243-18.272,85.921-28.713c1.044,3.284,2.011,6.6,2.912,9.943
			c-0.486,0.828-0.891,1.717-1.111,2.705c-0.176,0.787-18.306,78.907-86.732,87.463c-26.676,3.389-56.055-22.981-87.046-50.861
			c-47.796-42.995-101.954-91.727-164.222-41.949c-34.509,27.607-65.685,40.324-90.093,36.778
			c-19.593-2.843-28.407-15.069-28.88-15.736c-0.873-1.292-2.025-2.262-3.305-2.962C25.82,198.089,29.002,186.698,32.982,175.684z
			 M256,493.037C125.296,493.037,18.963,386.704,18.963,256c0-7.816,0.391-15.543,1.134-23.167
			c6.704,5.591,17.245,11.998,32.153,14.31c30.287,4.755,65.787-8.949,105.38-40.63c49.639-39.713,93.389-0.412,139.685,41.241
			c31.963,28.755,62.278,56.028,94.898,56.028c2.38,0,4.778-0.148,7.185-0.449c52.053-6.507,79.215-44.789,92.287-72.618
			c0.887,8.31,1.352,16.744,1.352,25.284C493.037,386.704,386.704,493.037,256,493.037z"/>
	</g>
</g>
<g>
	<g>
		<path d="M218.074,331.852c-5.241,0-9.482,4.246-9.482,9.481c0,15.685-12.759,28.444-28.444,28.444
			c-15.685,0-28.444-12.759-28.444-28.444c0-5.236-4.241-9.481-9.482-9.481s-9.482,4.246-9.482,9.481
			c0,26.139,21.269,47.407,47.407,47.407c26.139,0,47.407-21.268,47.407-47.407C227.556,336.097,223.315,331.852,218.074,331.852z"
			/>
	</g>
</g>
<g>
	<g>
		<path d="M379.259,331.852c-5.241,0-9.482,4.246-9.482,9.481c0,15.685-12.759,28.444-28.444,28.444
			c-15.685,0-28.444-12.759-28.444-28.444c0-5.236-4.241-9.481-9.482-9.481s-9.482,4.246-9.482,9.481
			c0,26.139,21.269,47.407,47.407,47.407c26.139,0,47.407-21.268,47.407-47.407C388.741,336.097,384.5,331.852,379.259,331.852z"/>
	</g>
</g>
</svg>