<svg xmlns="http://www.w3.org/2000/svg" viewBox="0 0 100 100">
  <rect width="100" height="100" rx="20" fill="#352961"/>
  <path d="M28 32C28 26.477 32.477 22 38 22H62C67.523 22 72 26.477 72 32V68C72 73.523 67.523 78 62 78H38C32.477 78 28 73.523 28 68V32Z" fill="#774181"/>
  <path d="M42 50C42 43.373 47.373 38 54 38H68C74.627 38 80 43.373 80 50V68C80 74.627 74.627 80 68 80H54C47.373 80 42 74.627 42 68V50Z" fill="#e6b2c6"/>
  <path d="M35 40L65 40" stroke="white" stroke-width="4" stroke-linecap="round"/>
  <path d="M35 52L55 52" stroke="white" stroke-width="4" stroke-linecap="round"/>
  <path d="M35 64L45 64" stroke="white" stroke-width="4" stroke-linecap="round"/>
</svg>